<svg width="140" height="29" viewBox="0 0 140 29" fill="none" xmlns="http://www.w3.org/2000/svg">
<g clip-path="url(#clip0_479_3217)">
<path d="M9.51378 21.5224L5.26933 21.5224L1.80985 15.5951L5.02136 9.85416L2.09284 9.85416L0 5.84631L14.0948 5.84631L16.2995 9.62501L9.61522 9.62501L6.15051 15.6598L9.51378 21.5224Z" fill="white"/>
<path d="M8.69727 15.563L10.9076 11.7249L14.2552 17.8138L20.9661 17.8138L24.5218 11.919L26.6041 15.401L23.0802 21.7329L16.4012 21.7329L17.7787 23.8058L15.6967 28.0001L8.69727 15.563Z" fill="white"/>
<path d="M15.4236 15.4982L19.7002 15.4982L26.833 3.20644L22.3591 3.08759L20.9707 5.61392L17.7249 -1.57947e-06L10.5387 -3.2299e-07L8.69141 3.63828L15.4184 3.63828L18.8138 9.54403L15.4236 15.4982Z" fill="white"/>
</g>
<path d="M37.943 9.06847V6.12727H51.8004V9.06847H46.6348V23H43.1086V9.06847H37.943ZM52.4125 23V10.3455H55.8151V12.5534H55.9469C56.1776 11.768 56.5648 11.1748 57.1085 10.7739C57.6523 10.3674 58.2784 10.1642 58.987 10.1642C59.1627 10.1642 59.3522 10.1752 59.5554 10.1972C59.7586 10.2191 59.9371 10.2493 60.0909 10.2878V13.402C59.9262 13.3526 59.6982 13.3086 59.4071 13.2702C59.116 13.2317 58.8496 13.2125 58.608 13.2125C58.0917 13.2125 57.6303 13.3251 57.2239 13.5503C56.8229 13.77 56.5044 14.0776 56.2682 14.473C56.0375 14.8685 55.9222 15.3243 55.9222 15.8406V23H52.4125ZM61.6155 23V10.3455H65.1251V23H61.6155ZM63.3786 8.7142C62.8568 8.7142 62.4091 8.54119 62.0357 8.19517C61.6677 7.84366 61.4837 7.42349 61.4837 6.93466C61.4837 6.45133 61.6677 6.03665 62.0357 5.69063C62.4091 5.33911 62.8568 5.16335 63.3786 5.16335C63.9003 5.16335 64.3452 5.33911 64.7132 5.69063C65.0867 6.03665 65.2734 6.45133 65.2734 6.93466C65.2734 7.42349 65.0867 7.84366 64.7132 8.19517C64.3452 8.54119 63.9003 8.7142 63.3786 8.7142ZM67.5807 23V20.9074L73.7761 13.2372V13.1466H67.7949V10.3455H78.0025V12.6276L72.1861 20.1082V20.1989H78.2168V23H67.5807ZM80.5446 23V20.9074L86.74 13.2372V13.1466H80.7588V10.3455H90.9665V12.6276L85.15 20.1082V20.1989H91.1807V23H80.5446ZM97.0841 6.12727V23H93.5744V6.12727H97.0841ZM105.373 23.2472C104.071 23.2472 102.95 22.9835 102.011 22.4563C101.077 21.9235 100.358 21.171 99.8526 20.1989C99.3473 19.2212 99.0947 18.0651 99.0947 16.7304C99.0947 15.4287 99.3473 14.2863 99.8526 13.3031C100.358 12.32 101.069 11.5538 101.986 11.0045C102.909 10.4553 103.991 10.1807 105.232 10.1807C106.067 10.1807 106.845 10.3152 107.564 10.5844C108.289 10.848 108.921 11.2462 109.459 11.779C110.003 12.3117 110.426 12.9818 110.728 13.7892C111.03 14.5911 111.181 15.5303 111.181 16.6068V17.5707H100.495V15.3957H107.877C107.877 14.8904 107.767 14.4428 107.548 14.0528C107.328 13.6629 107.023 13.358 106.633 13.1384C106.249 12.9132 105.801 12.8006 105.29 12.8006C104.757 12.8006 104.285 12.9241 103.873 13.1713C103.467 13.413 103.148 13.7398 102.917 14.1517C102.687 14.5581 102.569 15.0113 102.563 15.5111V17.579C102.563 18.2051 102.678 18.7461 102.909 19.202C103.145 19.6579 103.478 20.0094 103.906 20.2565C104.334 20.5037 104.843 20.6273 105.43 20.6273C105.82 20.6273 106.177 20.5723 106.501 20.4625C106.825 20.3527 107.103 20.1879 107.333 19.9682C107.564 19.7485 107.74 19.4794 107.861 19.1608L111.107 19.375C110.942 20.1549 110.604 20.836 110.093 21.4182C109.588 21.9949 108.934 22.4453 108.132 22.7693C107.336 23.0879 106.416 23.2472 105.373 23.2472Z" fill="white"/>
<defs>
<clipPath id="clip0_479_3217">
<rect width="26.8333" height="28" fill="white"/>
</clipPath>
</defs>
</svg>
