<svg width="64" height="64" viewBox="0 0 64 64" fill="none" xmlns="http://www.w3.org/2000/svg">
<rect width="64" height="64" rx="12" fill="#1744E2"/>
<g clip-path="url(#clip0_534_3148)">
<path d="M27.5138 39.5224L23.2693 39.5224L19.8098 33.5951L23.0214 27.8542L20.0928 27.8542L18 23.8463L32.0948 23.8463L34.2995 27.625L27.6152 27.625L24.1505 33.6598L27.5138 39.5224Z" fill="#E8EDFF"/>
<path d="M26.6973 33.563L28.9076 29.7249L32.2552 35.8138L38.9661 35.8138L42.5218 29.919L44.6041 33.401L41.0802 39.7329L34.4012 39.7329L35.7787 41.8058L33.6967 46.0001L26.6973 33.563Z" fill="#E8EDFF"/>
<path d="M33.4236 33.4982L37.7002 33.4982L44.833 21.2064L40.3591 21.0876L38.9707 23.6139L35.7249 18L28.5387 18L26.6914 21.6383L33.4184 21.6383L36.8138 27.544L33.4236 33.4982Z" fill="#E8EDFF"/>
</g>
<defs>
<clipPath id="clip0_534_3148">
<rect width="26.8333" height="28" fill="white" transform="translate(18 18)"/>
</clipPath>
</defs>
</svg>
