<svg width="140" height="29" viewBox="0 0 140 29" fill="none" xmlns="http://www.w3.org/2000/svg">
<g clip-path="url(#clip0_11_13937)">
<path d="M9.51378 21.5224L5.26933 21.5224L1.80985 15.5951L5.02136 9.85416L2.09284 9.85416L0 5.84631L14.0948 5.84631L16.2995 9.62501L9.61522 9.62501L6.15051 15.6598L9.51378 21.5224Z" fill="#2563EB"/>
<path d="M8.69702 15.563L10.9074 11.7249L14.255 17.8138L20.9658 17.8138L24.5215 11.919L26.6039 15.401L23.08 21.7329L16.401 21.7329L17.7785 23.8058L15.6965 28.0001L8.69702 15.563Z" fill="#2563EB"/>
<path d="M15.4241 15.4982L19.7007 15.4982L26.8335 3.20644L22.3596 3.08759L20.9712 5.61392L17.7254 -1.57947e-06L10.5392 -3.2299e-07L8.6919 3.63828L15.4188 3.63828L18.8143 9.54403L15.4241 15.4982Z" fill="#2563EB"/>
</g>
<path d="M37.944 9.06847V6.12727H51.8014V9.06847H46.6357V23H43.1096V9.06847H37.944ZM52.4135 23V10.3455H55.8161V12.5534H55.9479C56.1786 11.768 56.5658 11.1748 57.1095 10.7739C57.6533 10.3674 58.2794 10.1642 58.9879 10.1642C59.1637 10.1642 59.3532 10.1752 59.5564 10.1972C59.7596 10.2191 59.9381 10.2493 60.0919 10.2878V13.402C59.9271 13.3526 59.6992 13.3086 59.4081 13.2702C59.117 13.2317 58.8506 13.2125 58.609 13.2125C58.0927 13.2125 57.6313 13.3251 57.2249 13.5503C56.8239 13.77 56.5054 14.0776 56.2692 14.473C56.0385 14.8685 55.9232 15.3243 55.9232 15.8406V23H52.4135ZM61.6165 23V10.3455H65.1261V23H61.6165ZM63.3795 8.7142C62.8578 8.7142 62.4101 8.54119 62.0366 8.19517C61.6686 7.84366 61.4846 7.42349 61.4846 6.93466C61.4846 6.45133 61.6686 6.03665 62.0366 5.69063C62.4101 5.33911 62.8578 5.16335 63.3795 5.16335C63.9013 5.16335 64.3462 5.33911 64.7142 5.69063C65.0877 6.03665 65.2744 6.45133 65.2744 6.93466C65.2744 7.42349 65.0877 7.84366 64.7142 8.19517C64.3462 8.54119 63.9013 8.7142 63.3795 8.7142ZM67.5816 23V20.9074L73.7771 13.2372V13.1466H67.7959V10.3455H78.0035V12.6276L72.187 20.1082V20.1989H78.2177V23H67.5816ZM80.5456 23V20.9074L86.741 13.2372V13.1466H80.7598V10.3455H90.9674V12.6276L85.151 20.1082V20.1989H91.1816V23H80.5456ZM97.085 6.12727V23H93.5754V6.12727H97.085ZM105.374 23.2472C104.072 23.2472 102.951 22.9835 102.012 22.4563C101.078 21.9235 100.359 21.171 99.8536 20.1989C99.3483 19.2212 99.0957 18.0651 99.0957 16.7304C99.0957 15.4287 99.3483 14.2863 99.8536 13.3031C100.359 12.32 101.07 11.5538 101.987 11.0045C102.91 10.4553 103.992 10.1807 105.233 10.1807C106.068 10.1807 106.845 10.3152 107.565 10.5844C108.29 10.848 108.922 11.2462 109.46 11.779C110.004 12.3117 110.427 12.9818 110.729 13.7892C111.031 14.5911 111.182 15.5303 111.182 16.6068V17.5707H100.496V15.3957H107.878C107.878 14.8904 107.768 14.4428 107.549 14.0528C107.329 13.6629 107.024 13.358 106.634 13.1384C106.25 12.9132 105.802 12.8006 105.291 12.8006C104.758 12.8006 104.286 12.9241 103.874 13.1713C103.468 13.413 103.149 13.7398 102.918 14.1517C102.688 14.5581 102.57 15.0113 102.564 15.5111V17.579C102.564 18.2051 102.679 18.7461 102.91 19.202C103.146 19.6579 103.479 20.0094 103.907 20.2565C104.335 20.5037 104.843 20.6273 105.431 20.6273C105.821 20.6273 106.178 20.5723 106.502 20.4625C106.826 20.3527 107.104 20.1879 107.334 19.9682C107.565 19.7485 107.741 19.4794 107.862 19.1608L111.108 19.375C110.943 20.1549 110.605 20.836 110.094 21.4182C109.589 21.9949 108.935 22.4453 108.133 22.7693C107.337 23.0879 106.417 23.2472 105.374 23.2472Z" fill="white"/>
<defs>
<clipPath id="clip0_11_13937">
<rect width="26.8333" height="28" fill="white"/>
</clipPath>
</defs>
</svg>
